<mxfile host="app.diagrams.net" agent="Mozilla/5.0 (Macintosh; Intel Mac OS X 10_15_7) AppleWebKit/537.36 (KHTML, like Gecko) Chrome/133.0.0.0 Safari/537.36" version="26.1.0">
  <diagram name="페이지-1" id="wQ0Xx3qRGLSFfky0tmZ7">
    <mxGraphModel dx="2022" dy="2447" grid="1" gridSize="10" guides="1" tooltips="1" connect="1" arrows="1" fold="1" page="1" pageScale="1" pageWidth="1654" pageHeight="1169" math="0" shadow="0">
      <root>
        <mxCell id="0" />
        <mxCell id="1" parent="0" />
        <mxCell id="t8GZxJ8JMjlUp7sah_Ib-4" value="" style="rounded=0;whiteSpace=wrap;html=1;dashed=1;fillColor=#f5f5f5;strokeColor=#666666;fontColor=#333333;" vertex="1" parent="1">
          <mxGeometry x="80" y="-1090" width="970" height="670" as="geometry" />
        </mxCell>
        <mxCell id="t8GZxJ8JMjlUp7sah_Ib-7" value="" style="rounded=0;whiteSpace=wrap;html=1;dashed=1;fillColor=#fff2cc;strokeColor=#d6b656;" vertex="1" parent="1">
          <mxGeometry x="130" y="-1010" width="880" height="190" as="geometry" />
        </mxCell>
        <mxCell id="t8GZxJ8JMjlUp7sah_Ib-3" value="" style="image;html=1;image=img/lib/clip_art/networking/Wireless_Router_N_128x128.png" vertex="1" parent="1">
          <mxGeometry x="40" y="-1130" width="80" height="80" as="geometry" />
        </mxCell>
        <mxCell id="t8GZxJ8JMjlUp7sah_Ib-5" value="Home network" style="text;html=1;align=center;verticalAlign=middle;whiteSpace=wrap;rounded=0;strokeWidth=1;fontSize=21;fontStyle=1" vertex="1" parent="1">
          <mxGeometry x="90" y="-1130" width="150" height="30" as="geometry" />
        </mxCell>
        <mxCell id="t8GZxJ8JMjlUp7sah_Ib-6" value="" style="image;html=1;image=img/lib/clip_art/computers/Server_128x128.png" vertex="1" parent="1">
          <mxGeometry x="100" y="-1040" width="80" height="80" as="geometry" />
        </mxCell>
        <mxCell id="t8GZxJ8JMjlUp7sah_Ib-13" value="" style="rounded=0;whiteSpace=wrap;html=1;dashed=1;fillColor=#fff2cc;strokeColor=#d6b656;" vertex="1" parent="1">
          <mxGeometry x="130" y="-620" width="880" height="160" as="geometry" />
        </mxCell>
        <mxCell id="t8GZxJ8JMjlUp7sah_Ib-8" value="" style="image;html=1;image=img/lib/clip_art/computers/Server_128x128.png" vertex="1" parent="1">
          <mxGeometry x="110" y="-650" width="80" height="80" as="geometry" />
        </mxCell>
        <mxCell id="t8GZxJ8JMjlUp7sah_Ib-10" value="INFRASTRUCTURE" style="text;html=1;align=center;verticalAlign=middle;whiteSpace=wrap;rounded=0;strokeWidth=1;fontSize=21;fontStyle=1" vertex="1" parent="1">
          <mxGeometry x="200" y="-1040" width="150" height="30" as="geometry" />
        </mxCell>
        <mxCell id="t8GZxJ8JMjlUp7sah_Ib-11" value="APPLICATIONS" style="text;html=1;align=center;verticalAlign=middle;whiteSpace=wrap;rounded=0;strokeWidth=1;fontSize=21;fontStyle=1" vertex="1" parent="1">
          <mxGeometry x="190" y="-650" width="150" height="30" as="geometry" />
        </mxCell>
        <mxCell id="t8GZxJ8JMjlUp7sah_Ib-92" style="edgeStyle=orthogonalEdgeStyle;rounded=0;orthogonalLoop=1;jettySize=auto;html=1;entryX=1;entryY=0.5;entryDx=0;entryDy=0;" edge="1" parent="1" source="t8GZxJ8JMjlUp7sah_Ib-19" target="t8GZxJ8JMjlUp7sah_Ib-20">
          <mxGeometry relative="1" as="geometry" />
        </mxCell>
        <mxCell id="t8GZxJ8JMjlUp7sah_Ib-19" value="" style="shape=image;imageAspect=0;aspect=fixed;verticalLabelPosition=bottom;verticalAlign=top;image=https://encrypted-tbn0.gstatic.com/images?q=tbn:ANd9GcTl8zwVyy8wiDibyIOFblqDaR4621S8pcelD1r8meymiQAolc8IPmgZXPvwmEwi50PhFjc&amp;usqp=CAU;" vertex="1" parent="1">
          <mxGeometry x="930" y="-340" width="120" height="120" as="geometry" />
        </mxCell>
        <mxCell id="t8GZxJ8JMjlUp7sah_Ib-94" style="edgeStyle=orthogonalEdgeStyle;rounded=0;orthogonalLoop=1;jettySize=auto;html=1;" edge="1" parent="1" source="t8GZxJ8JMjlUp7sah_Ib-20" target="t8GZxJ8JMjlUp7sah_Ib-21">
          <mxGeometry relative="1" as="geometry" />
        </mxCell>
        <mxCell id="t8GZxJ8JMjlUp7sah_Ib-95" style="edgeStyle=orthogonalEdgeStyle;rounded=0;orthogonalLoop=1;jettySize=auto;html=1;entryX=1;entryY=0.5;entryDx=0;entryDy=0;" edge="1" parent="1" source="t8GZxJ8JMjlUp7sah_Ib-20" target="t8GZxJ8JMjlUp7sah_Ib-44">
          <mxGeometry relative="1" as="geometry" />
        </mxCell>
        <mxCell id="t8GZxJ8JMjlUp7sah_Ib-97" style="edgeStyle=orthogonalEdgeStyle;rounded=0;orthogonalLoop=1;jettySize=auto;html=1;entryX=1;entryY=0.5;entryDx=0;entryDy=0;exitX=0.5;exitY=0;exitDx=0;exitDy=0;startArrow=classic;startFill=1;" edge="1" parent="1" source="t8GZxJ8JMjlUp7sah_Ib-19" target="t8GZxJ8JMjlUp7sah_Ib-89">
          <mxGeometry relative="1" as="geometry">
            <Array as="points">
              <mxPoint x="990" y="-370" />
              <mxPoint x="1090" y="-370" />
              <mxPoint x="1090" y="-915" />
            </Array>
          </mxGeometry>
        </mxCell>
        <mxCell id="t8GZxJ8JMjlUp7sah_Ib-20" value="" style="shape=image;imageAspect=0;aspect=fixed;verticalLabelPosition=bottom;verticalAlign=top;image=https://blog.kakaocdn.net/dn/niaU7/btscRr51sAP/904YrckJPDWfiHgh0V1bX0/img.png;" vertex="1" parent="1">
          <mxGeometry x="330" y="-330" width="132.65" height="100" as="geometry" />
        </mxCell>
        <mxCell id="t8GZxJ8JMjlUp7sah_Ib-21" value="" style="shape=image;imageAspect=0;aspect=fixed;verticalLabelPosition=bottom;verticalAlign=top;image=https://static.vecteezy.com/system/resources/previews/023/986/880/non_2x/discord-logo-discord-logo-transparent-discord-icon-transparent-free-free-png.png;" vertex="1" parent="1">
          <mxGeometry x="336.32000000000005" y="-120" width="120" height="120" as="geometry" />
        </mxCell>
        <mxCell id="t8GZxJ8JMjlUp7sah_Ib-91" style="edgeStyle=orthogonalEdgeStyle;rounded=0;orthogonalLoop=1;jettySize=auto;html=1;exitX=0;exitY=0.5;exitDx=0;exitDy=0;entryX=1;entryY=0.5;entryDx=0;entryDy=0;" edge="1" parent="1" source="t8GZxJ8JMjlUp7sah_Ib-22" target="t8GZxJ8JMjlUp7sah_Ib-19">
          <mxGeometry relative="1" as="geometry">
            <mxPoint x="1130" y="-279.9411764705883" as="targetPoint" />
          </mxGeometry>
        </mxCell>
        <mxCell id="t8GZxJ8JMjlUp7sah_Ib-22" value="" style="image;html=1;image=img/lib/clip_art/computers/MacBook_128x128.png" vertex="1" parent="1">
          <mxGeometry x="1182.65" y="-335" width="127.35" height="110" as="geometry" />
        </mxCell>
        <mxCell id="t8GZxJ8JMjlUp7sah_Ib-24" value="&lt;font style=&quot;font-size: 25px;&quot;&gt;git push&lt;/font&gt;" style="text;html=1;align=center;verticalAlign=middle;whiteSpace=wrap;rounded=0;" vertex="1" parent="1">
          <mxGeometry x="1080" y="-314" width="90" height="30" as="geometry" />
        </mxCell>
        <mxCell id="t8GZxJ8JMjlUp7sah_Ib-27" value="&lt;font style=&quot;font-size: 25px;&quot;&gt;Build notify&lt;/font&gt;" style="text;html=1;align=center;verticalAlign=middle;whiteSpace=wrap;rounded=0;" vertex="1" parent="1">
          <mxGeometry x="400" y="-190" width="125.85" height="30" as="geometry" />
        </mxCell>
        <mxCell id="t8GZxJ8JMjlUp7sah_Ib-28" value="&lt;font style=&quot;font-size: 25px;&quot;&gt;gradle test &amp;amp; build&lt;/font&gt;" style="text;html=1;align=center;verticalAlign=middle;whiteSpace=wrap;rounded=0;" vertex="1" parent="1">
          <mxGeometry x="600" y="-314" width="203.67" height="30" as="geometry" />
        </mxCell>
        <mxCell id="t8GZxJ8JMjlUp7sah_Ib-32" value="&lt;font style=&quot;font-size: 25px;&quot;&gt;docker push&lt;/font&gt;" style="text;html=1;align=center;verticalAlign=middle;whiteSpace=wrap;rounded=0;" vertex="1" parent="1">
          <mxGeometry x="205" y="-314" width="140" height="30" as="geometry" />
        </mxCell>
        <mxCell id="t8GZxJ8JMjlUp7sah_Ib-48" style="edgeStyle=orthogonalEdgeStyle;rounded=0;orthogonalLoop=1;jettySize=auto;html=1;exitX=1;exitY=0.5;exitDx=0;exitDy=0;" edge="1" parent="1" source="t8GZxJ8JMjlUp7sah_Ib-33" target="t8GZxJ8JMjlUp7sah_Ib-37">
          <mxGeometry relative="1" as="geometry" />
        </mxCell>
        <mxCell id="t8GZxJ8JMjlUp7sah_Ib-33" value="" style="shape=image;imageAspect=0;aspect=fixed;verticalLabelPosition=bottom;verticalAlign=top;image=https://miro.medium.com/v2/resize:fit:400/0*7iKZS4Mi0nSboFRY.png;" vertex="1" parent="1">
          <mxGeometry x="210" y="-605" width="130" height="130" as="geometry" />
        </mxCell>
        <mxCell id="t8GZxJ8JMjlUp7sah_Ib-34" value="" style="shape=image;imageAspect=0;aspect=fixed;verticalLabelPosition=bottom;verticalAlign=top;image=https://d1.awsstatic.com/logos/partners/MariaDB_Logo.d8a208f0a889a8f0f0551b8391a065ea79c54f3a.png;" vertex="1" parent="1">
          <mxGeometry x="136" y="-970" width="204" height="105" as="geometry" />
        </mxCell>
        <mxCell id="t8GZxJ8JMjlUp7sah_Ib-35" value="" style="shape=image;imageAspect=0;aspect=fixed;verticalLabelPosition=bottom;verticalAlign=top;image=https://blog.kakaocdn.net/dn/ZWh52/btqGc9JTJqg/hdsqpl2Kfvn98IN6s1Jch1/img.png;" vertex="1" parent="1">
          <mxGeometry x="330" y="-972.5" width="130.31" height="110" as="geometry" />
        </mxCell>
        <mxCell id="t8GZxJ8JMjlUp7sah_Ib-38" value="" style="rounded=0;whiteSpace=wrap;html=1;dashed=1;fillColor=#d5e8d4;strokeColor=#82b366;" vertex="1" parent="1">
          <mxGeometry x="670" y="-570" width="330" height="90" as="geometry" />
        </mxCell>
        <mxCell id="t8GZxJ8JMjlUp7sah_Ib-36" value="" style="shape=image;imageAspect=0;aspect=fixed;verticalLabelPosition=bottom;verticalAlign=top;image=https://blogger.googleusercontent.com/img/b/R29vZ2xl/AVvXsEiSqT1SJ2-10Nt4SfENScW41TuQBkqvHpApsNeBw6h44_KLbyCywu8NO_y_d4ug6bfLFPKM-z0groqAkCdzBy9oS1GTxpOI_IU0YEANjFETgemUnLKqTZnxAgqQtEJ3aWHEVfyxMmAK4fA/s1600/spring-boot-logo.png;" vertex="1" parent="1">
          <mxGeometry x="746.38" y="-550" width="95.24" height="50" as="geometry" />
        </mxCell>
        <mxCell id="t8GZxJ8JMjlUp7sah_Ib-37" value="" style="shape=image;imageAspect=0;aspect=fixed;verticalLabelPosition=bottom;verticalAlign=top;image=https://blog.kakaocdn.net/dn/UACxt/btsFjXWg8r7/v7SNosBSfAxB9YciNeK7GK/img.png;" vertex="1" parent="1">
          <mxGeometry x="630" y="-610" width="105.37" height="90" as="geometry" />
        </mxCell>
        <mxCell id="t8GZxJ8JMjlUp7sah_Ib-39" value="docker container" style="text;html=1;align=center;verticalAlign=middle;whiteSpace=wrap;rounded=0;strokeWidth=1;fontSize=21;fontStyle=1" vertex="1" parent="1">
          <mxGeometry x="718.5" y="-600" width="175" height="30" as="geometry" />
        </mxCell>
        <mxCell id="t8GZxJ8JMjlUp7sah_Ib-42" value="&lt;font style=&quot;font-size: 25px;&quot;&gt;docker pull&lt;/font&gt;" style="text;html=1;align=center;verticalAlign=middle;whiteSpace=wrap;rounded=0;" vertex="1" parent="1">
          <mxGeometry x="15" y="-390" width="140" height="30" as="geometry" />
        </mxCell>
        <mxCell id="t8GZxJ8JMjlUp7sah_Ib-96" style="edgeStyle=orthogonalEdgeStyle;rounded=0;orthogonalLoop=1;jettySize=auto;html=1;entryX=0;entryY=0.5;entryDx=0;entryDy=0;" edge="1" parent="1" source="t8GZxJ8JMjlUp7sah_Ib-44" target="t8GZxJ8JMjlUp7sah_Ib-33">
          <mxGeometry relative="1" as="geometry">
            <Array as="points">
              <mxPoint x="150" y="-540" />
            </Array>
          </mxGeometry>
        </mxCell>
        <mxCell id="t8GZxJ8JMjlUp7sah_Ib-44" value="" style="shape=image;imageAspect=0;aspect=fixed;verticalLabelPosition=bottom;verticalAlign=top;image=https://blog.kakaocdn.net/dn/wxaXA/btq169CobXY/47wTlykkcRkZr5gPIwaUeK/img.png;" vertex="1" parent="1">
          <mxGeometry x="80" y="-330" width="125.49" height="100" as="geometry" />
        </mxCell>
        <mxCell id="t8GZxJ8JMjlUp7sah_Ib-49" value="&lt;font style=&quot;font-size: 25px;&quot;&gt;docker run&lt;/font&gt;" style="text;html=1;align=center;verticalAlign=middle;whiteSpace=wrap;rounded=0;" vertex="1" parent="1">
          <mxGeometry x="340" y="-570" width="140" height="30" as="geometry" />
        </mxCell>
        <mxCell id="t8GZxJ8JMjlUp7sah_Ib-50" value="" style="shape=image;imageAspect=0;aspect=fixed;verticalLabelPosition=bottom;verticalAlign=top;image=https://static-00.iconduck.com/assets.00/nextjs-icon-2048x1234-pqycciiu.png;" vertex="1" parent="1">
          <mxGeometry x="870" y="-550" width="83.07" height="50" as="geometry" />
        </mxCell>
        <mxCell id="t8GZxJ8JMjlUp7sah_Ib-52" style="edgeStyle=orthogonalEdgeStyle;rounded=0;orthogonalLoop=1;jettySize=auto;html=1;entryX=0.5;entryY=0;entryDx=0;entryDy=0;dashed=1;" edge="1" parent="1" source="t8GZxJ8JMjlUp7sah_Ib-34" target="t8GZxJ8JMjlUp7sah_Ib-36">
          <mxGeometry relative="1" as="geometry">
            <Array as="points">
              <mxPoint x="238" y="-740" />
              <mxPoint x="794" y="-740" />
            </Array>
          </mxGeometry>
        </mxCell>
        <mxCell id="t8GZxJ8JMjlUp7sah_Ib-51" style="edgeStyle=orthogonalEdgeStyle;rounded=0;orthogonalLoop=1;jettySize=auto;html=1;dashed=1;exitX=0.5;exitY=1;exitDx=0;exitDy=0;" edge="1" parent="1" source="t8GZxJ8JMjlUp7sah_Ib-35" target="t8GZxJ8JMjlUp7sah_Ib-36">
          <mxGeometry relative="1" as="geometry">
            <Array as="points">
              <mxPoint x="395" y="-770" />
              <mxPoint x="730" y="-770" />
              <mxPoint x="730" y="-525" />
            </Array>
          </mxGeometry>
        </mxCell>
        <mxCell id="t8GZxJ8JMjlUp7sah_Ib-100" style="edgeStyle=orthogonalEdgeStyle;rounded=0;orthogonalLoop=1;jettySize=auto;html=1;entryX=0;entryY=0.5;entryDx=0;entryDy=0;startArrow=classic;startFill=1;" edge="1" parent="1" source="t8GZxJ8JMjlUp7sah_Ib-89" target="t8GZxJ8JMjlUp7sah_Ib-99">
          <mxGeometry relative="1" as="geometry">
            <Array as="points">
              <mxPoint x="748" y="-1035" />
            </Array>
          </mxGeometry>
        </mxCell>
        <mxCell id="t8GZxJ8JMjlUp7sah_Ib-89" value="" style="shape=image;imageAspect=0;aspect=fixed;verticalLabelPosition=bottom;verticalAlign=top;image=https://tech.osci.kr/wp-content/uploads/2023/09/image-20230920-051212.png;" vertex="1" parent="1">
          <mxGeometry x="630" y="-957.5" width="235.11" height="85" as="geometry" />
        </mxCell>
        <mxCell id="t8GZxJ8JMjlUp7sah_Ib-98" value="&lt;font style=&quot;font-size: 25px;&quot;&gt;code review&lt;/font&gt;" style="text;html=1;align=center;verticalAlign=middle;whiteSpace=wrap;rounded=0;" vertex="1" parent="1">
          <mxGeometry x="952.0699999999999" y="-406" width="140" height="30" as="geometry" />
        </mxCell>
        <mxCell id="t8GZxJ8JMjlUp7sah_Ib-99" value="" style="shape=image;imageAspect=0;aspect=fixed;verticalLabelPosition=bottom;verticalAlign=top;image=https://forums.getdrafts.com/uploads/default/original/2X/e/e7b4d0c64bccff6787857f8d940e8193b9ab9a90.jpeg;" vertex="1" parent="1">
          <mxGeometry x="1140" y="-1100" width="187.26" height="130" as="geometry" />
        </mxCell>
        <mxCell id="t8GZxJ8JMjlUp7sah_Ib-101" value="code review prompt" style="text;html=1;align=center;verticalAlign=middle;whiteSpace=wrap;rounded=0;strokeWidth=1;fontSize=21;fontStyle=1" vertex="1" parent="1">
          <mxGeometry x="823" y="-1063" width="213" height="30" as="geometry" />
        </mxCell>
        <mxCell id="t8GZxJ8JMjlUp7sah_Ib-145" style="edgeStyle=orthogonalEdgeStyle;rounded=0;orthogonalLoop=1;jettySize=auto;html=1;entryX=0.5;entryY=0;entryDx=0;entryDy=0;dashed=1;" edge="1" parent="1" source="t8GZxJ8JMjlUp7sah_Ib-144" target="t8GZxJ8JMjlUp7sah_Ib-36">
          <mxGeometry relative="1" as="geometry">
            <Array as="points">
              <mxPoint x="550" y="-810" />
              <mxPoint x="794" y="-810" />
            </Array>
          </mxGeometry>
        </mxCell>
        <mxCell id="t8GZxJ8JMjlUp7sah_Ib-144" value="" style="shape=image;imageAspect=0;aspect=fixed;verticalLabelPosition=bottom;verticalAlign=top;image=https://www.openpolicyagent.org/img/logos/integrations/minio.png;" vertex="1" parent="1">
          <mxGeometry x="490" y="-972.5" width="120" height="120" as="geometry" />
        </mxCell>
        <mxCell id="t8GZxJ8JMjlUp7sah_Ib-147" style="edgeStyle=orthogonalEdgeStyle;rounded=0;orthogonalLoop=1;jettySize=auto;html=1;entryX=1;entryY=0.5;entryDx=0;entryDy=0;" edge="1" parent="1" source="t8GZxJ8JMjlUp7sah_Ib-146" target="t8GZxJ8JMjlUp7sah_Ib-50">
          <mxGeometry relative="1" as="geometry" />
        </mxCell>
        <mxCell id="t8GZxJ8JMjlUp7sah_Ib-146" value="" style="points=[];aspect=fixed;html=1;align=center;shadow=0;dashed=0;fillColor=#FF6A00;strokeColor=none;shape=mxgraph.alibaba_cloud.pcdn_p2p_cdn;" vertex="1" parent="1">
          <mxGeometry x="1210" y="-605" width="137.29" height="160" as="geometry" />
        </mxCell>
        <mxCell id="t8GZxJ8JMjlUp7sah_Ib-148" value="CDN" style="text;html=1;align=center;verticalAlign=middle;whiteSpace=wrap;rounded=0;fontSize=38;" vertex="1" parent="1">
          <mxGeometry x="1250" y="-436" width="60" height="30" as="geometry" />
        </mxCell>
        <mxCell id="t8GZxJ8JMjlUp7sah_Ib-149" style="edgeStyle=orthogonalEdgeStyle;rounded=0;orthogonalLoop=1;jettySize=auto;html=1;entryX=0.467;entryY=0.016;entryDx=0;entryDy=0;entryPerimeter=0;dashed=1;" edge="1" parent="1" source="t8GZxJ8JMjlUp7sah_Ib-144" target="t8GZxJ8JMjlUp7sah_Ib-146">
          <mxGeometry relative="1" as="geometry">
            <Array as="points">
              <mxPoint x="550" y="-840" />
              <mxPoint x="1274" y="-840" />
            </Array>
          </mxGeometry>
        </mxCell>
      </root>
    </mxGraphModel>
  </diagram>
</mxfile>
